<?xml version="1.0" encoding="UTF-8" standalone="no"?>
<svg xmlns="http://www.w3.org/2000/svg" height="155px" width="148px" version="1.1" xmlns:xlink="http://www.w3.org/1999/xlink" viewBox="0 0 148 155"><!-- Generator: Sketch 43.2 (39069) - http://www.bohemiancoding.com/sketch -->
 <title>Group 8</title>
 <desc>Created with Sketch.</desc>
 <g id="Homepage" fill-rule="evenodd" fill="none">
  <g id="HOMEPAGE-GREY-+-LOGIN" fill="#fff" transform="translate(-197 -1840)">
   <g id="CTA-create-account" transform="translate(150 1784)">
    <g id="Group-8" transform="translate(47 56)">
     <path id="Fill-56" d="m73.798 12.156c-37.81 0-68.571 30.771-68.571 68.592-0.0003 37.822 30.761 68.592 68.571 68.592 37.812 0 68.572-30.77 68.572-68.592 0-37.821-30.76-68.592-68.572-68.592zm0 142.41c-40.693 0-73.798-33.12-73.798-73.822 0-40.705 33.105-73.82 73.798-73.82 40.692 0 73.802 33.115 73.802 73.82 0 40.702-33.11 73.822-73.802 73.822z"/>
     <path id="Fill-57" d="m90.406 45.777c-3.074 6.683-12.989 9.216-20.275 16.67-7.198 7.364-19.308 12.845-29.062 17.018-6.357 2.721-16.267 4.325-17.114 6.237-0.85 1.912 11.569 2.338 11.569 2.338s-21.973 11.36-21.973 12.63c0 1.28 8.172-1.374 19-4.985 10.829-3.61 31.635-3.398 40.128-1.912 8.493 1.487 8.918 1.596 8.068 4.247-0.85 2.65-0.85 7.33 1.061 10.51 1.911 3.19 5.307 5.1 5.095 6.16-0.211 1.06-2.334 0.64-2.761 1.91-0.423 1.28 0.657-0.4 1.554 0.09 0.9 0.49 1.88 0.65 2.535-0.08 0.653-0.74 2.449 1.96 2.204 2.53-0.246 0.57-0.816-0.25-2.124 0.24-1.306 0.49-1.88-0.57-2.778-0.24-0.897 0.33-2.776 0.08-2.776 0.73 0 0.66 1.634 1.97 3.513 1.64 1.877-0.33 4.41-0.65 5.146 0 0.735 0.65 8.984 2.53 10.614 2.7 1.64 0.16 2.78-0.74 3.03-0.17 0.24 0.58 0.73 0.17 0.65-0.41-0.08-0.57-1.63-0.73-1.39-1.3 0.25-0.58 3.6 0 5.07-0.09 1.47-0.08 2.28-0.98 3.26-1.06s1.31-0.49 0.82-1.06-6.7 0.24-8.41 0.33c-1.72 0.08-2.86-0.58-2.94-1.07-0.09-0.49 0.49 0 1.3-0.57 0.82-0.57-0.08-1.63 0.49-1.8 0.58-0.16 4.42-0.24 5.23-0.32 0.82-0.08 1.64-0.49 2.45-0.41 0.82 0.08 1.15-0.41 0.33-0.9s-1.8-0.82-2.78-0.65c-0.98 0.16-5.63 0.24-5.63 0.24s-1.48-1.55-2.13-1.14-2.775 0.9-3.675-0.33c-0.898-1.22-2.287-1.39-3.759-3.19-1.469-1.79-4.165-3.35-4.081-5.96 0.081-2.62 2.122-7.763 6.126-11.768 4.002-4.004 10.209-7.598 15.109-12.828 4.91-5.231 7.6-11.932 7.85-21.736 0.24-9.807-0.74-22.717-0.98-29.336-0.25-6.619-0.09-10.54 3.34-13.728 2.13-1.717 4.82-1.226 6.78-0.818 1.96 0.41 2.37 0.573 2.37-0.49 0-1.062-0.65-1.961-1.87-3.023-1.23-1.0621-2.29-3.5942-4.01-4.8203-1.7-1.2133-4.57-5.8027-10.05-5.8027-6.53 0-10.7 3.5132-14.619 12.258-3.934 8.775-6.43 26.835-9.505 33.519"/>
    </g>
   </g>
  </g>
 </g>
</svg>
