<?xml version="1.0" encoding="UTF-8" standalone="no"?>
<svg xmlns="http://www.w3.org/2000/svg" height="21px" width="20px" version="1.1" xmlns:xlink="http://www.w3.org/1999/xlink" viewBox="0 0 20 21"><!-- Generator: Sketch 43.2 (39069) - http://www.bohemiancoding.com/sketch -->
 <title>Group 2</title>
 <desc>Created with Sketch.</desc>
 <g id="Symbols" fill-rule="evenodd" fill="none">
  <g id="Reminder" transform="translate(-5 -4)">
   <g id="Group-8">
    <g id="Group-2" transform="translate(5 4)">
     <path id="" fill="#fff" d="m10.179 19.786c0-0.101-0.079-0.179-0.179-0.179-0.8817 0-1.6071-0.725-1.6071-1.607 0-0.1-0.0782-0.179-0.1786-0.179-0.1005 0-0.1786 0.079-0.1786 0.179 0 1.083 0.8817 1.964 1.9643 1.964 0.1 0 0.179-0.078 0.179-0.178zm9.107-3.215c0 0.782-0.648 1.429-1.429 1.429h-5c0 1.574-1.283 2.857-2.857 2.857-1.5737 0-2.8571-1.283-2.8571-2.857h-5c-0.7813 0-1.4286-0.647-1.4286-1.429 1.6518-1.395 3.5714-3.895 3.5714-9.2853 0-2.1429 1.7746-4.4866 4.7322-4.9219-0.0558-0.1339-0.0893-0.279-0.0893-0.4352 0-0.5916 0.4799-1.0715 1.0714-1.0715 0.592 0.00002 1.071 0.4799 1.071 1.0715 0 0.1562-0.033 0.3013-0.089 0.4352 2.958 0.4353 4.732 2.779 4.732 4.9219 0 5.3903 1.92 7.8903 3.572 9.2853z"/>
     <path id="" fill="#0e9cde" d="m10.179 19.786c0-0.101-0.079-0.179-0.179-0.179-0.8817 0-1.6071-0.725-1.6071-1.607 0-0.1-0.0782-0.179-0.1786-0.179-0.1005 0-0.1786 0.079-0.1786 0.179 0 1.083 0.8817 1.964 1.9643 1.964 0.1 0 0.179-0.078 0.179-0.178zm-7.4335-3.215c1.9978-2.254 2.9688-5.312 2.9688-9.2853 0-1.4397 1.3616-3.5714 4.2857-3.5714 2.924 0 4.286 2.1317 4.286 3.5714 0 3.9733 0.971 7.0313 2.968 9.2853h-14.508zm16.54 0c0 0.782-0.648 1.429-1.429 1.429h-5c0 1.574-1.283 2.857-2.857 2.857-1.5737 0-2.8571-1.283-2.8571-2.857h-5c-0.7813 0-1.4286-0.647-1.4286-1.429 1.6518-1.395 3.5714-3.895 3.5714-9.2853 0-2.1429 1.7746-4.4866 4.7322-4.9219-0.0558-0.1339-0.0893-0.279-0.0893-0.4352 0-0.5916 0.4799-1.0715 1.0714-1.0715 0.592 0.00002 1.071 0.4799 1.071 1.0715 0 0.1562-0.033 0.3013-0.089 0.4352 2.958 0.4353 4.732 2.779 4.732 4.9219 0 5.3903 1.92 7.8903 3.572 9.2853z"/>
    </g>
   </g>
  </g>
 </g>
</svg>