<?xml version="1.0" encoding="UTF-8" standalone="no"?>
<svg xmlns="http://www.w3.org/2000/svg" height="18px" width="19px" version="1.1" xmlns:xlink="http://www.w3.org/1999/xlink" viewBox="0 0 19 18"><!-- Generator: Sketch 43.2 (39069) - http://www.bohemiancoding.com/sketch -->
 <title>Group</title>
 <desc>Created with Sketch.</desc>
 <g id="Symbols" fill-rule="evenodd" fill="none">
  <g id="Artboard-2" transform="translate(-6 -5)">
   <g id="Group" transform="translate(6 5)">
    <path id="" fill="#fff" d="m18.571 7.0781c0-0.3348-0.357-0.4687-0.625-0.5134l-5.602-0.8147-2.5114-5.0781c-0.1004-0.2121-0.2902-0.45763-0.5469-0.45763s-0.4464 0.24553-0.5469 0.45759l-2.5111 5.0781-5.6027 0.8147c-0.27902 0.0447-0.625 0.1786-0.625 0.5134 0 0.2009 0.14509 0.3906 0.27902 0.5357l4.0625 3.9512-0.9598 5.58c-0.0112 0.078-0.0223 0.145-0.0223 0.223 0 0.29 0.1451 0.558 0.4687 0.558 0.1563 0 0.3014-0.055 0.4465-0.134l5.0111-2.634 5.0113 2.634c0.134 0.079 0.29 0.134 0.446 0.134 0.324 0 0.458-0.268 0.458-0.558 0-0.078 0-0.145-0.011-0.223l-0.96-5.58 4.051-3.9512c0.145-0.1451 0.29-0.3348 0.29-0.5357z"/>
    <path id="" fill="#0e9cde" d="m12.69 11.062l3.415-3.3142-4.71-0.692-2.1093-4.2634-2.1094 4.2634-4.7098 0.692 3.4152 3.3142-0.8147 4.699 4.2187-2.221 4.2073 2.221-0.803-4.699zm5.881-3.9839c0 0.2009-0.145 0.3906-0.29 0.5357l-4.051 3.9512 0.96 5.58c0.011 0.078 0.011 0.145 0.011 0.223 0 0.302-0.134 0.558-0.458 0.558-0.156 0-0.312-0.055-0.446-0.134l-5.0113-2.634-5.0111 2.634c-0.1451 0.079-0.2902 0.134-0.4465 0.134-0.3236 0-0.4687-0.268-0.4687-0.558 0-0.078 0.0111-0.145 0.0223-0.223l0.9598-5.58-4.0625-3.9512c-0.13391-0.1451-0.279-0.3348-0.279-0.5357 0-0.3348 0.34598-0.4687 0.625-0.5134l5.6027-0.8147 2.5111-5.0781c0.1005-0.2121 0.2902-0.45763 0.5469-0.45763s0.4465 0.24553 0.5469 0.45759l2.5114 5.0781 5.602 0.8147c0.268 0.0447 0.625 0.1786 0.625 0.5134z"/>
   </g>
  </g>
 </g>
</svg>
