<?xml version="1.0" standalone="no"?>
<!DOCTYPE svg PUBLIC "-//W3C//DTD SVG 20010904//EN"
 "http://www.w3.org/TR/2001/REC-SVG-20010904/DTD/svg10.dtd">
<svg version="1.0" xmlns="http://www.w3.org/2000/svg"
 width="911.000000pt" height="911.000000pt" viewBox="0 0 911.000000 911.000000"
 preserveAspectRatio="xMidYMid meet">
<metadata>
Created by potrace 1.11, written by Peter Selinger 2001-2013
</metadata>
<g transform="translate(0.000000,911.000000) scale(0.100000,-0.100000)"
fill="#000000" stroke="none">
<path d="M6095 9103 c-105 -23 -193 -72 -270 -149 -56 -56 -131 -168 -172
-254 -29 -61 -45 -71 -81 -50 -33 19 -284 93 -362 106 -14 3 -41 9 -60 14 -19
5 -52 11 -72 14 -21 3 -53 8 -72 12 -142 22 -286 31 -486 29 -124 -2 -243 -5
-265 -9 -22 -3 -76 -10 -121 -16 -44 -6 -91 -13 -105 -15 -13 -3 -37 -8 -54
-11 -16 -3 -34 -7 -40 -8 -5 -1 -37 -9 -70 -16 -33 -8 -62 -14 -65 -15 -119
-31 -239 -71 -346 -113 -109 -44 -324 -145 -364 -172 -14 -9 -61 -38 -105 -65
-573 -341 -1047 -931 -1267 -1575 -28 -84 -76 -246 -84 -285 -6 -31 -11 -56
-23 -108 -6 -26 -14 -67 -16 -90 -3 -23 -10 -70 -15 -104 -23 -144 -30 -440
-16 -633 5 -58 10 -107 11 -110 2 -3 6 -34 10 -70 3 -36 10 -81 15 -100 5 -19
12 -51 15 -70 22 -133 109 -420 164 -545 5 -11 17 -38 26 -60 81 -186 255
-483 352 -600 5 -5 25 -32 45 -58 160 -210 445 -475 673 -623 33 -21 62 -42
65 -45 11 -12 219 -128 310 -171 260 -126 575 -225 835 -263 23 -3 52 -7 65
-10 139 -27 650 -27 789 0 10 2 42 7 72 11 30 4 61 8 69 9 8 1 33 6 55 11 22
4 42 9 45 9 63 13 261 68 303 84 15 6 27 8 27 5 0 -4 6 -2 13 3 6 6 30 16 52
23 61 19 219 87 320 137 79 40 262 144 290 165 6 5 55 40 110 79 266 190 529
455 717 724 209 299 391 712 464 1050 2 11 6 31 9 45 16 72 34 184 30 188 -2
2 0 14 5 27 30 79 33 581 5 775 -2 14 -7 45 -10 70 -45 331 -200 776 -364
1044 -23 36 -41 70 -41 75 0 5 -3 11 -7 13 -5 2 -30 37 -57 78 -151 232 -364
469 -593 657 -57 46 -103 88 -103 91 0 4 5 25 11 47 5 22 12 48 14 58 8 34 58
112 96 148 59 57 159 73 279 46 86 -19 95 -17 98 21 3 34 -23 82 -65 115 -13
10 -40 44 -60 75 -38 57 -75 97 -194 207 -129 120 -185 146 -319 150 -52 1
-104 1 -115 -2z m-1300 -497 c92 -8 126 -13 210 -28 33 -5 74 -12 90 -15 80
-13 428 -113 444 -128 3 -3 -8 -43 -60 -225 -15 -52 -57 -231 -74 -310 -2 -8
-13 -53 -24 -100 -12 -47 -24 -100 -27 -119 -3 -19 -10 -45 -15 -58 -5 -13
-11 -37 -14 -53 -11 -65 -78 -268 -107 -326 -55 -111 -149 -195 -378 -340
-225 -141 -321 -214 -450 -337 -193 -186 -409 -325 -783 -506 -92 -45 -169
-81 -171 -81 -3 0 -33 -13 -68 -29 -132 -61 -339 -139 -414 -156 -85 -19 -311
-92 -361 -116 -72 -35 -82 -59 -33 -84 17 -9 30 -13 30 -11 0 3 11 1 25 -4 14
-5 44 -12 67 -15 24 -3 59 -8 78 -10 19 -3 78 -7 130 -11 52 -3 96 -7 97 -8 1
-1 -28 -17 -65 -36 -37 -19 -140 -74 -229 -122 -90 -48 -165 -88 -168 -88 -2
0 -34 -18 -70 -40 -36 -22 -67 -40 -70 -40 -8 0 -176 -101 -225 -135 -25 -18
-46 -39 -48 -48 -8 -39 168 3 593 144 105 35 192 63 195 64 3 1 25 7 50 14 25
7 50 14 55 15 6 2 35 8 65 14 49 10 195 32 319 46 209 26 756 26 981 1 114
-13 285 -44 373 -67 93 -24 113 -45 96 -99 -20 -67 -24 -95 -24 -194 1 -171
41 -259 183 -402 46 -46 82 -90 82 -101 0 -14 -13 -24 -47 -37 -49 -19 -63
-30 -63 -53 0 -10 5 -10 20 -2 13 7 32 7 64 -2 35 -9 51 -9 71 0 14 7 30 12
35 12 13 0 60 -64 65 -88 3 -18 -2 -21 -38 -21 -54 -1 -93 -1 -137 1 -60 3
-120 -5 -130 -18 -14 -16 33 -61 72 -69 17 -4 60 -4 97 0 116 14 135 13 176
-5 33 -15 94 -35 140 -46 6 -1 60 -14 120 -29 123 -30 215 -38 252 -24 20 7
30 6 43 -6 16 -14 18 -14 24 2 7 17 -17 46 -46 55 -6 2 -8 10 -4 16 5 8 39 10
117 7 101 -4 115 -3 169 20 33 14 67 25 75 25 11 0 15 7 13 23 -3 21 -7 22
-83 21 -44 -1 -114 -5 -155 -9 -139 -15 -185 -11 -219 21 -13 11 -12 14 5 19
39 13 49 23 49 50 1 37 18 42 146 48 57 3 111 8 120 11 9 4 29 8 45 10 16 2
32 4 37 5 20 3 2 24 -35 41 -30 13 -59 17 -102 15 -167 -9 -216 -8 -234 7 -37
33 -57 37 -99 23 -49 -17 -92 -8 -125 27 -13 14 -43 38 -68 55 -56 39 -203
191 -224 232 -22 42 -25 84 -11 144 32 137 127 298 241 411 38 38 139 123 224
189 218 170 264 209 360 307 182 185 274 374 325 665 26 146 25 605 0 1055 -3
41 -7 129 -10 195 -3 66 -8 137 -10 158 l-3 37 46 -39 c115 -97 260 -252 371
-396 17 -22 35 -45 41 -52 5 -6 43 -63 84 -125 162 -246 291 -539 363 -823 29
-114 28 -109 49 -230 49 -278 49 -682 0 -921 -2 -12 -7 -39 -10 -60 -4 -22
-18 -84 -32 -139 -14 -55 -27 -107 -29 -115 -10 -49 -84 -249 -128 -348 -219
-489 -566 -899 -1014 -1198 -62 -41 -120 -77 -130 -81 -10 -4 -20 -10 -23 -13
-9 -12 -224 -118 -324 -159 -151 -63 -409 -140 -521 -156 -22 -4 -47 -8 -55
-10 -146 -41 -617 -52 -830 -20 -45 7 -157 25 -192 31 -55 9 -256 63 -348 94
-192 64 -389 157 -577 274 -554 342 -997 910 -1182 1516 -17 58 -36 119 -42
137 -5 18 -12 42 -15 55 -2 13 -9 43 -14 68 -5 25 -11 55 -14 67 -2 11 -8 43
-12 70 -3 26 -8 57 -10 68 -2 10 -6 49 -10 85 -3 36 -8 81 -10 100 -5 50 -5
346 1 400 3 25 7 67 10 94 9 84 30 217 41 266 3 14 7 32 9 40 83 402 299 837
588 1185 64 76 276 288 342 340 28 22 52 43 55 46 3 3 40 31 82 62 167 123
373 241 563 322 85 36 268 102 308 110 10 2 50 13 90 24 40 10 86 22 102 25
17 3 50 10 75 15 204 41 523 57 755 37z"/>
<path d="M7197 2205 c-199 -68 -242 -314 -77 -434 163 -118 400 -7 403 188 1
84 -19 135 -75 188 -63 60 -171 85 -251 58z m149 -69 c61 -33 90 -73 100 -135
17 -107 -56 -207 -157 -215 -104 -8 -188 67 -193 173 -7 138 136 240 250 177z"/>
<path d="M7180 2080 c-7 -4 -10 -47 -8 -116 l3 -109 33 -2 c31 -3 32 -2 32 37
0 21 3 41 8 43 18 11 51 -14 57 -42 4 -17 10 -32 13 -32 4 -1 22 -3 40 -5 26
-2 32 1 32 17 0 30 -28 89 -42 89 -7 1 0 11 15 24 23 18 27 28 21 50 -3 14
-16 32 -28 38 -22 13 -158 19 -176 8z m115 -54 c17 -12 17 -16 5 -30 -17 -22
-55 -17 -54 7 3 34 4 37 17 37 7 0 22 -6 32 -14z"/>
<path d="M1570 2182 c-7 -3 -10 -375 -10 -1092 l0 -1089 229 1 229 0 -1 389
c0 214 2 391 4 394 3 2 153 6 334 8 182 2 339 7 350 10 11 3 40 10 65 17 143
38 302 171 372 313 58 114 77 208 73 357 -3 129 -4 136 -31 228 -30 105 -103
224 -186 305 -61 59 -184 126 -261 141 -7 2 -30 7 -52 11 -37 8 -1093 14
-1115 7z m1012 -396 c156 -46 246 -166 236 -318 -7 -104 -46 -171 -139 -240
-71 -52 -129 -61 -406 -63 l-253 -1 -1 31 c-1 42 -1 577 0 592 2 25 475 24
563 -1z"/>
<path d="M3409 2170 c-1 -20 -1 -2142 0 -2157 1 -9 58 -11 228 -10 l228 2 0
1088 c1 1085 1 1087 -20 1088 -11 1 -113 2 -227 3 -179 1 -208 -1 -209 -14z"/>
<path d="M4127 2182 c-10 -2 -17 -15 -19 -35 -2 -18 -2 -507 0 -1088 l2 -1057
230 0 230 0 0 394 0 394 103 0 c616 2 619 3 772 83 84 44 191 155 240 248 63
120 84 219 80 374 -4 190 -47 320 -149 450 -88 112 -191 181 -323 216 -74 20
-106 21 -614 22 -294 1 -543 1 -552 -1z m1006 -397 c107 -32 190 -105 222
-196 23 -63 18 -167 -11 -229 -25 -55 -91 -123 -144 -150 -81 -40 -109 -44
-372 -45 l-258 -1 0 321 0 320 257 -3 c190 -2 270 -6 306 -17z"/>
<path d="M6255 2145 c-7 -22 -24 -67 -36 -100 -12 -33 -36 -103 -54 -155 -19
-52 -53 -151 -78 -220 -24 -69 -74 -210 -111 -315 -37 -104 -78 -219 -91 -255
-13 -36 -38 -105 -55 -155 -17 -49 -34 -97 -37 -105 -3 -8 -7 -19 -9 -25 -1
-5 -21 -62 -44 -125 -23 -63 -57 -158 -75 -210 -18 -52 -62 -179 -99 -282 -36
-103 -66 -189 -66 -192 0 -2 107 -4 237 -3 l237 2 23 60 c12 33 45 128 73 210
28 83 53 156 55 163 4 10 90 12 407 10 l402 -3 49 -160 c27 -88 57 -187 66
-220 l18 -60 252 -2 c138 -1 249 2 246 7 -3 4 -31 84 -64 176 -82 235 -241
687 -311 884 -60 170 -198 560 -300 850 -32 91 -66 187 -77 215 l-18 49 -263
1 -262 0 -15 -40z m298 -532 c21 -65 228 -723 242 -773 4 -13 -30 -15 -270
-15 -151 0 -275 1 -275 2 0 1 6 22 14 45 8 24 40 124 71 223 31 99 69 218 84
265 15 47 45 140 66 208 21 67 40 122 41 122 1 0 13 -35 27 -77z"/>
</g>
</svg>
